# xmcd
#
# Track frame offsets: 
#        217
#        16700
#        30007
#        49982
#        61877
#        75545
#        93540
#        106617
#        119967
#        132682
#        146567
#        169837
#        181332
#        195860
#        206295
#        218530
#        230310
#        243562
#
# Disc length: 3457 seconds
#
# Revision: 0
# Processed by: cddbd v1.4PL0 Copyright (c) Steve Scherf et al.
# Submitted via: ExactAudioCopy v0.95a3
#
DISCID=ea0d7f12
DTITLE=Various Artist - COUNTRY WESTERN HITS Vol.2-CD2
DYEAR=1994
DGENRE=Country
TTITLE0=JOHNNY CASH-A boy
TTITLE1=GLENN CAMPBELL-Gentle on my mind
TTITLE2=WILLIE NELSON and CARLOS SANTANA-They all went to Mexico
TTITLE3=DOLLY PARTON- Jolene
TTITLE4=NANCY SINATRA and LEE HAZELWOOD-Lady bird
TTITLE5=ALABAMA-Lady down on love
TTITLE6=THE SHADOWS-Apache
TTITLE7=OAK RIDGE BOYS-Leaving Louisiana in the broad daylight
TTITLE8=CHARLIE McCOY-Orange blossem special
TTITLE9=ASLEEP AT THE WHEEL-Miles and miles of Texas
TTITLE10=COMMANDER CODY and HIS LOST PLANET AIRMEN-Mama hated diesels
TTITLE11=CRYSTAL GAYE-Never ending song of love
TTITLE12=OLIVIA NEWTON JOHN-If you love me
TTITLE13=FERRIN HUSKY-Wings of a dove
TTITLE14=JEANNE BLACK-He'll have to stay
TTITLE15=WANDA JACKSON-Right or wrong
TTITLE16=TEX WILLIAMS-Smoke!smoke!smoke!
TTITLE17=DIRT BAND+LINDA RONSTADT-An American dream
EXTD=
EXTT0=
EXTT1=
EXTT2=
EXTT3=
EXTT4=
EXTT5=
EXTT6=
EXTT7=
EXTT8=
EXTT9=
EXTT10=
EXTT11=
EXTT12=
EXTT13=
EXTT14=
EXTT15=
EXTT16=
EXTT17=
PLAYORDER=
